<?xml version="1.0" encoding="utf-8"?>
<!-- Generator: Adobe Illustrator 18.0.0, SVG Export Plug-In . SVG Version: 6.00 Build 0)  -->
<!DOCTYPE svg PUBLIC "-//W3C//DTD SVG 1.1//EN" "http://www.w3.org/Graphics/SVG/1.1/DTD/svg11.dtd">
<svg version="1.1" id="Layer_1" xmlns="http://www.w3.org/2000/svg" xmlns:xlink="http://www.w3.org/1999/xlink" x="0px" y="0px"
	 viewBox="0 0 500 500" enable-background="new 0 0 500 500" xml:space="preserve">
<g>
	<g>
		<path fill="#FDB827" d="M250.6,34.3C131.5,34.3,34.8,130.9,34.8,250s96.6,215.7,215.7,215.7S466.3,369.1,466.3,250
			S369.7,34.3,250.6,34.3L250.6,34.3z M346.1,200.6c0,2.2,0,4.5,0,6.7c0,65.2-49.4,141.6-141.6,141.6c-28.1,0-53.9-7.9-76.4-22.5
			c3.4,0,7.9,1.1,12.4,1.1c23.6,0,44.9-7.9,61.8-21.3c-21.3,0-40.4-14.6-46.1-34.8c3.4,1.1,5.6,1.1,9,1.1c4.5,0,9-1.1,13.5-2.2
			c-22.5-4.5-39.3-24.7-39.3-48.3c0,0,0,0,0-1.1c6.7,3.4,14.6,5.6,22.5,6.7c-13.5-9-22.5-23.6-22.5-41.6c0-9,2.2-18,6.7-24.7
			c24.7,30.3,60.7,49.4,102.2,51.7c-1.1-3.4-1.1-7.9-1.1-11.2c0-27,22.5-49.4,49.4-49.4c14.6,0,27,5.6,36,15.7
			c11.2-2.2,22.5-6.7,31.5-12.4c-3.4,11.2-11.2,21.3-21.3,27c10.1-1.1,19.1-3.4,28.1-7.9C364,184.8,356.2,193.8,346.1,200.6
			L346.1,200.6z"/>
	</g>
</g>
</svg>
