<?xml version="1.0" encoding="utf-8"?>
<!-- Generator: Adobe Illustrator 18.0.0, SVG Export Plug-In . SVG Version: 6.00 Build 0)  -->
<!DOCTYPE svg PUBLIC "-//W3C//DTD SVG 1.1//EN" "http://www.w3.org/Graphics/SVG/1.1/DTD/svg11.dtd">
<svg version="1.1" id="Layer_1" xmlns="http://www.w3.org/2000/svg" xmlns:xlink="http://www.w3.org/1999/xlink" x="0px" y="0px"
	 viewBox="0 0 500 500" enable-background="new 0 0 500 500" xml:space="preserve">
<g>
	<g>
		<path fill="#FDB827" d="M250.6,34.3C131.5,34.3,34.8,130.9,34.8,250s96.6,215.7,215.7,215.7S466.3,369.1,466.3,250
			S369.7,34.3,250.6,34.3L250.6,34.3z M304.5,250c0,53.9-43.8,97.8-97.8,97.8S109,303.9,109,250s43.8-97.8,97.8-97.8
			c21.3,0,42.7,6.7,59.6,20.2l-22.5,29.2c-11.2-7.9-23.6-12.4-37.1-12.4c-33.7,0-60.7,27-60.7,60.7s27,60.7,60.7,60.7
			c27,0,49.4-18,57.3-41.6h-57.3V232h97.8L304.5,250L304.5,250z M407.9,262.4h-28.1v28.1h-24.7v-28.1H327v-24.7h28.1v-28.1h24.7
			v28.1h28.1V262.4z"/>
	</g>
</g>
</svg>
