<?xml version="1.0" encoding="utf-8"?>
<!-- Generator: Adobe Illustrator 18.0.0, SVG Export Plug-In . SVG Version: 6.00 Build 0)  -->
<!DOCTYPE svg PUBLIC "-//W3C//DTD SVG 1.1//EN" "http://www.w3.org/Graphics/SVG/1.1/DTD/svg11.dtd">
<svg version="1.1" id="Layer_1" xmlns="http://www.w3.org/2000/svg" xmlns:xlink="http://www.w3.org/1999/xlink" x="0px" y="0px"
	 viewBox="0 0 500 500" enable-background="new 0 0 500 500" xml:space="preserve">
<g>
	<g>
		<path fill="#FDB827" d="M250.6,292.7c23.6,0,42.7-19.1,42.7-42.7c0-9-3.4-18-7.9-24.7c-7.9-11.2-20.2-18-34.8-18
			c-14.6,0-27,6.7-34.8,18c-5.6,6.7-7.9,15.7-7.9,24.7C206.7,273.6,225.8,292.7,250.6,292.7L250.6,292.7z"/>
		<path fill="#FDB827" d="M344.9,197.2v-41.6h-5.6h-36v41.6H344.9z"/>
		<path fill="#FDB827" d="M250.6,34.3C131.5,34.3,34.8,130.9,34.8,250s96.6,215.7,215.7,215.7S466.3,369.1,466.3,250
			S369.7,34.3,250.6,34.3L250.6,34.3z M373,224.2v100c0,25.8-21.3,47.2-47.2,47.2H175.3c-25.8,0-47.2-21.3-47.2-47.2V174.7
			c0-25.8,21.3-47.2,47.2-47.2h150.6c25.8,0,47.2,21.3,47.2,47.2V224.2z"/>
		<path fill="#FDB827" d="M316.9,250c0,37.1-30.3,67.4-67.4,67.4S182,287.1,182,250c0-9,2.2-16.9,4.5-24.7h-37.1v100
			c0,13.5,10.1,23.6,23.6,23.6h152.8c13.5,0,23.6-10.1,23.6-23.6v-100h-37.1C315.7,232,316.9,241,316.9,250L316.9,250z"/>
	</g>
</g>
</svg>
